<svg xmlns="http://www.w3.org/2000/svg" viewBox="0 0 250.65 250.34"><defs><style>.cls-1{fill:#272755;}.cls-2{fill:#41ad4f;}.cls-3{fill:#2b725e;}.cls-4{fill:#349355;}.cls-5{fill:#1b515c;}.cls-6{fill:#266361;}.cls-7{fill:#1c5a5e;}.cls-8{fill:#1f3c59;}.cls-9{fill:#319b50;}.cls-10{fill:#232d56;}.cls-11{fill:#1d4a5b;}.cls-12{fill:#213358;}.cls-13{fill:#1e435a;}.cls-14{fill:#346169;}.cls-15{fill:#297c59;}.cls-16{fill:#324563;}.cls-17{fill:#24685e;}.cls-18{fill:#298356;}.cls-19{fill:#548f6d;}.cls-20{fill:#92c18c;}.cls-21{fill:#7f929a;}.cls-22{fill:#bddcb5;}.cls-23{fill:#263f63;}.cls-24{fill:#3a8743;}.cls-25{fill:#423a66;}.cls-26{fill:#39315e;}</style></defs><g id="Layer_2" data-name="Layer 2"><g id="Layer_1-2" data-name="Layer 1"><path class="cls-1" d="M15.84,250.34H0V.93H15.85v11.8L12,13.19V238.47l3.81.34Z"/><path class="cls-2" d="M235.41,0h15.22c-.22,40.53,1.32,81-4.82,121.25V88.48h-1.58V112.9l-2.81-.88c.09,1.52.17,2.91.25,4.3q-.06,16.17-.11,32.35c-3.17-.18-1.87,1.55-1.27,3l-.3,86.76c-.16.75-.33,1.5-.5,2.25a1.47,1.47,0,0,1-.89-.23c-.08-.63-.15-1.25-.22-1.87q0-64.91,0-129.81,0-45.7-.2-91.42c0-2.16,1-5-2.75-5.29Z"/><path class="cls-3" d="M157.52.08h20.23q0,6.2,0,12.39H157.52Z"/><path class="cls-4" d="M197,0l20.2,0q.5,6,1,12.08l-21.18.11Q197,6.11,197,0Z"/><path class="cls-5" d="M94.79.31,114,.16q0,6.21,0,12.41l-19.21,0Q94.78,6.47,94.79.31Z"/><path class="cls-6" d="M128.19.1h18.2V12.48l-18.21.1Q128.18,6.34,128.19.1Z"/><path class="cls-7" d="M124.93,250.21l-12.94,0c0-3.79,0-7.57,0-11.36h20.24c0,3.35,0,6.7,0,10Z"/><path class="cls-8" d="M48.24.77,65.4.68l1,11.93-18.22.07Q48.25,6.73,48.24.77Z"/><path class="cls-9" d="M218.23,12.1q-.49-6-1-12.08h18.18q0,6,0,12Z"/><path class="cls-5" d="M112,238.87c0,3.79,0,7.57,0,11.36l-17.19-.14c0-3.75,0-7.5,0-11.25Z"/><path class="cls-10" d="M15.84,250.34c0-3.84,0-7.69,0-11.53h17.2l0,11.4Z"/><path class="cls-11" d="M94.79.31q0,6.17,0,12.31H79.6q0-6.09,0-12.17Z"/><path class="cls-10" d="M15.85,12.73V.93l16.2,0c0,3.93,0,7.86,0,11.79Z"/><path class="cls-12" d="M32,12.68c0-3.93,0-7.86,0-11.79L48.24.77q0,6,0,11.91Z"/><path class="cls-12" d="M33,250.21q0-5.7,0-11.4H49.23c0,3.74,0,7.47.05,11.21Z"/><path class="cls-13" d="M79.57,250l-17.18,0c0-3.71,0-7.42,0-11.13l17.19,0Z"/><path class="cls-14" d="M128.19.1q0,6.24,0,12.48H114q0-6.21,0-12.41Z"/><path class="cls-13" d="M79.61.45q0,6.07,0,12.17H66.45L65.4.68Z"/><path class="cls-11" d="M79.57,250l0-11.14H94.78c0,3.75,0,7.5,0,11.25Z"/><path class="cls-15" d="M177.76,12.48q0-6.2,0-12.39L189.87,0q0,6.24,0,12.47Z"/><path class="cls-16" d="M62.41,238.82c0,3.71,0,7.42,0,11.13L49.28,250c0-3.74,0-7.47-.05-11.21Z"/><path class="cls-17" d="M146.39,12.48V.09h11.13v12.4Z"/><path class="cls-6" d="M132.24,248.91c0-3.35,0-6.7,0-10l14.17,0c0,2.92,0,5.84,0,8.76l-6.16,1.86-6,.27Z"/><path class="cls-18" d="M203.39,242.9l-2.27,2.85-17.26-1,2-5.84L202,239Z"/><path class="cls-19" d="M189.88,12.48q0-6.24,0-12.47H197q0,6.11,0,12.21Z"/><path class="cls-4" d="M203.39,242.9,202,239l22.17-.13c-1,.6-1.94,1.25-3,1.78-1.34.7-2.72,1.31-4.09,2Z"/><path class="cls-20" d="M217.16,242.58c1.37-.65,2.75-1.26,4.09-2,1-.53,2-1.18,3-1.78l14.17-.28c.07.62.14,1.24.22,1.87Z"/><path class="cls-19" d="M194.12,248.28l-10.34-.68c0-.95.05-1.89.08-2.84l17.26,1c-.22.68-.35,1.9-.67,1.95C198.36,248,196.23,248.11,194.12,248.28Z"/><path class="cls-21" d="M147.45,247.85l11.76.94,11.3.88-30.29-.15,6.16-1.86Z"/><path class="cls-21" d="M132.24,248.91l2,.88-9.31.42Z"/><path class="cls-22" d="M239.49,240.66c.17-.75.34-1.5.5-2.25l3.17.32-3.46,5.47C239.66,243.46,239.58,242.06,239.49,240.66Z"/><path class="cls-22" d="M241.67,116.32c-.08-1.39-.16-2.78-.25-4.3l2.81.88Z"/><path class="cls-22" d="M240.29,151.65c-.6-1.43-1.9-3.16,1.27-3Z"/><path class="cls-17" d="M146.39,238.9h14.16c0,2.8,0,5.59,0,8.39l-13.08.56-1.07-.19C146.38,244.74,146.39,241.82,146.39,238.9Z"/><path class="cls-15" d="M171.7,238.9l14.17,0-2,5.84c0,1-.06,1.89-.08,2.84l-12.07-.2Q171.7,243.15,171.7,238.9Z"/><path class="cls-3" d="M171.7,238.9q0,4.26,0,8.5l-11.18-.11c0-2.8,0-5.59,0-8.39Z"/><path class="cls-23" d="M197.86,134.06c-3.64-2.36-9.24,2-12.44-4.36H203v34.78c-5.5,1-2.86-3.77-4.67-5.78-3.06,5.44-7.93,7.28-13.87,7.08-8.85-.31-14.16-4.53-15.86-13.29a55,55,0,0,1-.94-11c.15-12.79-.13-25.64,1-38.35.85-9.27,7.17-13.27,17.24-13.21,9.3.06,14.49,4.26,16.15,13.32.58,3.13.74,6.32,1.14,10l-4.53.69a6.33,6.33,0,0,1-.7-1.6c-.28-2.84-.25-5.74-.79-8.52-1.33-6.89-5.17-9.86-12-9.64s-11.29,3.4-11.54,10.22c-.57,15.29-.71,30.63-.12,45.92.31,7.92,4.91,11.25,12.22,11.24,7.05,0,11.19-3.74,12-11.67C198.26,144.65,197.86,139.39,197.86,134.06Z"/><path class="cls-23" d="M107.53,145.45c.46,1.92.88,3.88,1.4,5.81,2.31,8.58,9.26,12.24,17.55,9.29,5.53-2,8.11-9.44,5.23-16.45a27.63,27.63,0,0,0-5.23-7.94c-4.91-5.32-10.18-10.32-15.25-15.5a44.83,44.83,0,0,1-4.33-4.92c-4.53-6.25-4.86-14.34-.94-19.87,3.74-5.27,12.13-7.49,19.78-5.21,6.52,1.93,10.72,7.72,10.71,15.37,0,1.27-1.63,2.53-3.32,5-.88-3.93-1.32-6-1.81-8.11-1.11-4.71-3.93-7.83-8.79-8.56s-9.53-.2-12.7,4.2a11.45,11.45,0,0,0,1,14.09c4.46,5.26,9.68,9.85,14.33,15,3.5,3.83,7.21,7.68,9.79,12.12,3.88,6.68,4.32,14.05-.67,20.42-4.66,6-11.43,6.56-18.41,4.89-7.86-1.87-10.77-7.74-12.26-15C102.88,146.39,104.13,145.32,107.53,145.45Z"/><path class="cls-23" d="M62.58,94.71v69.77l-5,.31V94.94c-4.3,0-8.14.21-11.94-.12-1.17-.11-2.21-1.7-3.31-2.61l.9-1.46c10.41,0,20.82-.07,31.23.11,1,0,2.06,1.6,3.09,2.46l-.84,1.39Z"/><path class="cls-24" d="M84.91,187.82V69.91h3.8A23.61,23.61,0,0,1,89,72.73q0,55.63,0,111.27C89.08,186.77,89.11,189.23,84.91,187.82Z"/><path class="cls-24" d="M155.25,70.06V187.37c-4.1,1.15-4.13,1.15-4.13-3.86q0-51.58,0-103.18c0-2.53.12-5.06,0-7.58C150.89,69.42,152.53,69.19,155.25,70.06Z"/><path class="cls-25" d="M145.08,208.53c3.34.85,7.79.68,9.08,2.62,1.67,2.53,2.12,7.45.68,10-1.23,2.15-5.86,2.36-9.76,3.69Z"/><path class="cls-25" d="M201.05,212.24l2.9-4.14c.61,1.45,1.64,2.87,1.75,4.36.27,3.49.09,7,.09,10.46-8.28,1.41-10.36.66-10.9-3.76S196.47,212.58,201.05,212.24Z"/><path class="cls-25" d="M49.76,219l-3.53,4.66c-.58-1.49-1.53-2.95-1.65-4.47-.26-3.13-.08-6.29-.08-9.85,4.26.36,9.27-2.27,10.78,3.63C56.51,217.74,52.45,218.59,49.76,219Z"/><path class="cls-25" d="M168.75,217.61c-.22,4.16-2.2,6.22-5.74,6.22s-5.63-2.21-5.58-5.78,1.93-5.74,5.64-5.69S168.37,214.69,168.75,217.61Z"/><path class="cls-25" d="M80.69,217.87c-.15,3.82-2.1,5.92-5.64,6s-5.67-2.12-5.65-5.7,1.83-5.79,5.55-5.77S80.38,214.52,80.69,217.87Z"/><path class="cls-25" d="M180.06,224c-3.35-2.42-9.09,3-9.88-3.62a14.85,14.85,0,0,1,1.4-7c.41-.83,2.73-1,4.17-1C180.11,212.56,181.11,215.1,180.06,224Z"/><path class="cls-25" d="M105.52,221.15c-2.47,3.55-5.63,3.45-7.64,1.79-1.66-1.37-3.1-4.84-2.47-6.62s3.87-3.64,6-3.73c3.38-.14,4.68,2.63,4.24,6.34l-6.62.8v.87Z"/><path class="cls-26" d="M130.9,222.62c-7,2-8.35,1.15-9.28-4.28-.28-1.62-1.6-3.05-2.41-4.5,1-1.31,2.07-2.77,3.28-4.07.36-.38,1.48-.66,1.77-.42,1.83,1.54,3.53,3.25,5.64,5.24l-4.34,1.14C123.13,220.59,128,220.53,130.9,222.62Z"/><path class="cls-26" d="M82.23,213.06l8.13-.92c-.59,5.17-.75,9.89-1.93,14.33-.27,1-4.16,1-6.38,1.47L81.52,226l4.81-1.83v-8.33l-4-1.1Z"/><path class="cls-26" d="M117,214.07,111,217.94l6.68,4.27a6.11,6.11,0,0,1-8,.44c-3-2.05-3.18-5.06-1.2-8S114.11,211.63,117,214.07Z"/><path class="cls-25" d="M58.62,213l9.49-.45c0,.76.19,1.32.07,1.39-3.52,1.9-7.23,3.63-6.09,8.81a3.32,3.32,0,0,1-2.05.75,2.23,2.23,0,0,1-1.36-1.64C58.54,218.9,58.62,215.92,58.62,213Z"/><path class="cls-25" d="M193.31,212.91c-.8,1.17-1.22,2.32-1.65,2.32-4.39,0-5.18,2.63-5,6.31,0,.66-1.27,1.39-1.95,2.08-.55-.67-1.53-1.32-1.57-2-.18-2.94-.07-5.89-.07-8.69Z"/></g></g></svg>